<?xml version="1.0" standalone="no"?>
<!DOCTYPE svg PUBLIC "-//W3C//DTD SVG 20010904//EN"
 "http://www.w3.org/TR/2001/REC-SVG-20010904/DTD/svg10.dtd">
<svg version="1.0" xmlns="http://www.w3.org/2000/svg"
 width="920.000000pt" height="543.000000pt" viewBox="0 0 920.000000 543.000000"
 preserveAspectRatio="xMidYMid meet">

<g transform="translate(0.000000,543.000000) scale(0.100000,-0.100000)"
fill="#000000" stroke="none">
<path d="M3990 5419 c14 -6 43 -13 65 -16 22 -3 46 -10 54 -17 12 -8 13 -8 7
2 -6 9 -1 12 16 8 13 -2 41 -7 62 -11 32 -6 106 -40 106 -49 0 -1 -16 0 -35 2
-21 3 -42 -1 -52 -9 -9 -8 -14 -9 -11 -4 4 7 -8 11 -32 11 -25 0 -37 -3 -33
-10 4 -6 0 -6 -8 1 -8 7 -28 10 -43 7 -15 -2 -25 -1 -22 4 3 5 -6 7 -20 4
l-25 -4 27 -14 c15 -8 38 -15 51 -16 32 -3 52 -26 32 -39 -8 -5 -9 -9 -3 -9 5
0 16 6 23 13 11 10 13 10 7 0 -5 -9 0 -13 16 -13 13 0 30 -5 38 -10 11 -7 6
-8 -17 -5 -19 2 -33 -1 -33 -7 0 -5 7 -8 15 -4 14 5 20 -5 16 -27 -1 -5 3 -6
9 -2 6 3 7 12 3 18 -5 9 -3 9 8 1 8 -6 23 -10 34 -7 64 13 286 -17 382 -52 45
-16 32 -19 -34 -5 -91 18 -128 22 -245 25 -65 2 -118 0 -118 -4 0 -8 49 -32
67 -34 4 0 14 -7 22 -15 11 -11 15 -11 22 0 7 10 9 9 9 -4 0 -10 15 -24 35
-34 42 -20 45 -27 8 -18 -27 6 -28 6 -8 -11 11 -9 14 -14 7 -10 -7 4 -19 1
-27 -5 -10 -9 -15 -9 -15 -1 0 7 -8 8 -22 3 -13 -5 -30 -8 -38 -7 -8 1 -21 -3
-27 -8 -9 -6 -13 -5 -13 3 0 8 -3 10 -6 7 -9 -9 14 -36 29 -33 7 1 18 6 26 10
10 6 12 5 7 -2 -4 -7 -2 -13 3 -13 6 -1 16 -2 23 -3 6 0 13 -8 15 -16 4 -12 3
-12 -5 -1 -7 9 -11 10 -17 2 -5 -9 -10 -9 -20 -1 -8 7 -20 8 -27 4 -7 -5 -29
-7 -48 -5 -45 4 -36 -5 13 -13 23 -4 48 -17 63 -34 14 -15 23 -21 19 -14 -5 9
0 12 19 10 14 -2 29 -8 33 -13 4 -4 2 -5 -4 -1 -7 4 -13 2 -13 -3 0 -6 6 -11
13 -12 46 -2 72 -11 89 -29 10 -11 16 -24 13 -29 -9 -16 11 -21 30 -8 16 13
16 14 0 30 -9 10 -22 14 -28 10 -7 -3 -9 -3 -5 2 4 4 0 14 -10 21 -26 19 1 13
88 -21 41 -16 77 -30 80 -30 21 -3 202 -79 207 -88 3 -5 2 -8 -3 -5 -5 3 -35
9 -67 12 -69 8 -114 23 -190 64 -32 17 -55 27 -52 22 3 -5 1 -11 -5 -15 -6 -4
-8 -11 -4 -16 3 -5 9 -7 13 -5 4 3 8 -1 8 -9 0 -13 -3 -13 -17 0 -10 9 -24 13
-33 9 -20 -7 -17 -46 4 -50 107 -22 209 -54 209 -67 0 -4 6 -5 13 -1 9 6 9 5
0 -7 -9 -11 -7 -19 8 -38 11 -14 19 -18 19 -10 0 10 3 10 8 3 8 -13 31 -21 87
-29 43 -6 135 -34 135 -41 0 -6 -181 6 -192 12 -4 3 -8 -1 -8 -10 0 -8 13 -17
31 -21 20 -5 27 -10 19 -15 -6 -4 9 -10 36 -13 28 -3 53 -12 60 -22 9 -12 17
-14 31 -7 15 8 168 10 168 2 0 -1 17 -4 38 -5 22 -2 41 -6 44 -8 2 -3 -16 -17
-41 -32 -25 -15 -46 -32 -46 -38 0 -6 -3 -7 -7 -4 -3 4 -12 -1 -20 -11 -9 -10
-11 -11 -7 -2 7 12 5 13 -8 3 -8 -7 -18 -10 -21 -6 -4 3 -7 2 -7 -3 0 -5 -22
-9 -50 -8 -47 1 -66 -9 -37 -19 6 -2 -7 -10 -30 -17 -38 -12 -41 -15 -26 -26
15 -11 11 -14 -32 -27 l-50 -16 80 0 c55 -1 75 2 65 9 -12 8 -12 10 -1 10 7 0
39 11 70 24 31 13 63 27 71 30 36 16 64 36 50 36 -19 1 139 69 162 70 11 0 15
-6 11 -20 -3 -11 -9 -17 -14 -14 -5 3 -6 -2 -3 -10 4 -10 -3 -20 -20 -27 -14
-7 -23 -15 -21 -19 3 -4 -15 -11 -38 -14 -29 -4 -44 -12 -44 -21 0 -18 0 -18
40 -2 18 7 40 11 50 9 15 -3 14 -8 -11 -40 -29 -36 -92 -153 -92 -170 0 -4 40
32 89 81 77 77 93 89 113 82 13 -4 71 -9 130 -12 l107 -5 6 28 c19 88 100 237
156 289 l33 30 -36 -50 c-82 -115 -133 -265 -126 -366 3 -45 1 -60 -10 -64
-12 -4 -14 -22 -9 -93 4 -61 3 -77 -4 -52 -5 19 -9 81 -10 138 -1 56 -6 102
-10 102 -5 0 -9 -4 -9 -10 0 -5 -11 -10 -24 -10 -32 0 -85 -38 -117 -84 -41
-61 -61 -128 -69 -234 -4 -53 -8 -89 -9 -79 -3 37 -19 13 -46 -68 -17 -53 -25
-95 -21 -112 3 -18 -2 -12 -15 17 -18 38 -20 58 -16 130 3 47 8 94 12 105 3
11 0 9 -9 -6 -34 -58 -39 -197 -10 -268 12 -29 12 -32 -1 -27 -8 3 -15 1 -15
-4 0 -18 -19 -11 -70 25 -48 34 -50 34 -50 13 0 -13 11 -41 25 -63 13 -22 25
-43 25 -46 0 -4 -17 -9 -37 -13 -45 -7 -135 -55 -141 -75 -4 -10 0 -12 14 -6
49 20 63 14 18 -8 -48 -23 -86 -55 -50 -41 9 3 16 2 16 -4 0 -6 -13 -14 -28
-20 -25 -9 -28 -7 -27 13 0 12 6 29 13 38 8 10 9 17 3 21 -6 4 2 27 19 57 17
27 30 56 30 63 0 16 -116 80 -130 71 -6 -4 -8 -10 -6 -14 3 -4 -12 -25 -34
-46 -55 -54 -102 -166 -102 -244 0 -19 -2 -21 -10 -10 -6 10 -8 -1 -5 -33 3
-27 1 -48 -4 -48 -17 0 -22 77 -10 148 7 41 11 76 8 78 -8 8 -27 -102 -29
-168 -1 -65 -3 -69 -35 -90 -55 -38 -42 -52 16 -17 32 19 35 19 50 3 15 -15
15 -16 -1 -11 -25 9 -71 -54 -72 -98 -1 -19 -7 -40 -14 -47 -7 -7 -12 -17 -12
-22 0 -6 4 -4 10 4 5 8 12 12 15 8 3 -3 -14 -23 -39 -44 -25 -21 -46 -41 -46
-44 0 -4 18 -26 40 -49 22 -23 40 -38 40 -33 0 6 11 17 24 26 l25 16 -14 -34
c-36 -86 -47 -219 -27 -335 12 -70 17 -76 77 -92 55 -15 54 -15 43 -53 -12
-39 -14 -39 -140 -57 -49 -7 -88 -16 -88 -20 0 -3 -11 -4 -25 -1 -14 2 -25 0
-25 -6 0 -5 -41 -13 -91 -17 -50 -3 -116 -13 -145 -21 -30 -7 -74 -16 -98 -18
-24 -2 -58 -12 -74 -20 -38 -20 -56 -20 -22 -1 17 10 20 14 9 15 -24 0 -182
-30 -194 -38 -10 -6 -25 -9 -85 -17 -19 -2 -42 -6 -50 -8 -13 -3 -67 -14 -110
-22 -8 -2 -98 -19 -200 -39 -102 -20 -234 -45 -295 -57 -60 -11 -146 -29 -190
-40 -80 -20 -139 -31 -162 -32 -7 0 -13 -4 -13 -9 0 -5 -4 -7 -9 -3 -5 3 -13
1 -16 -5 -4 -7 -12 -7 -18 -2 -7 4 -16 8 -22 7 -13 -1 -94 -14 -126 -20 -13
-2 -53 -9 -89 -14 -36 -6 -130 -24 -210 -41 -80 -17 -158 -33 -175 -35 -46 -6
-59 -10 -74 -19 -11 -7 -12 -6 -5 5 5 9 -2 8 -20 -5 -16 -10 -26 -13 -22 -7 6
9 -48 8 -109 -3 -74 -14 -99 -16 -80 -6 17 8 15 9 -10 5 -16 -3 -55 -10 -85
-15 -30 -5 -101 -18 -157 -28 -78 -15 -103 -16 -103 -7 0 9 -22 8 -92 -6 -311
-63 -555 -139 -691 -216 -109 -61 -208 -147 -238 -205 -20 -38 -20 -40 -2 -71
25 -43 59 -45 192 -13 131 32 542 99 1055 172 326 46 498 75 655 111 13 3 55
0 94 -7 57 -11 89 -11 176 -1 251 30 259 29 213 -23 -64 -73 -70 -187 -14
-267 73 -107 169 -180 326 -247 64 -28 92 -47 116 -77 88 -111 225 -191 405
-237 69 -18 100 -20 235 -15 103 3 189 12 258 27 57 12 106 19 109 17 9 -9
-30 -65 -48 -70 -10 -3 -38 -37 -64 -75 -37 -57 -45 -79 -45 -116 0 -36 -9
-59 -43 -113 -24 -37 -57 -101 -72 -141 -16 -39 -32 -72 -36 -72 -24 0 -133
179 -151 248 -3 12 -11 22 -17 22 -6 0 -8 -6 -6 -12 3 -7 -20 -53 -51 -103
-38 -61 -54 -80 -50 -60 7 32 -50 -59 -105 -168 l-29 -57 1213 0 1214 0 35 78
c35 75 37 78 94 101 44 19 75 24 124 23 109 -2 214 -13 224 -23 6 -5 26 -9 47
-9 25 0 87 -25 205 -82 l169 -83 1028 -3 c979 -2 1028 -1 1023 15 -3 10 -15
63 -26 118 -35 168 -70 297 -92 337 -34 60 -31 64 -78 -120 -31 -123 -64 -202
-84 -202 -7 0 -36 35 -64 78 -28 42 -85 118 -126 167 -42 50 -76 93 -76 97 0
4 11 15 24 23 24 16 24 18 11 56 -17 48 -62 113 -107 156 -62 59 -246 180
-360 237 -115 57 -181 78 -300 95 -48 7 -78 17 -103 36 -19 15 -69 44 -111 65
-72 37 -75 39 -52 51 38 20 197 161 294 261 49 51 116 134 148 183 32 50 67
103 79 120 55 78 98 147 141 227 39 73 55 92 96 117 27 17 53 38 58 48 6 10
13 54 15 98 6 81 26 149 43 143 5 -2 10 24 12 57 2 33 8 63 14 66 9 6 9 11 1
21 -6 7 -13 29 -16 48 -3 29 -4 26 -5 -14 -2 -63 -20 -50 -24 17 l-3 49 -54
19 c-30 10 -64 27 -75 38 -34 31 -108 64 -115 52 -9 -14 -87 -41 -115 -40 -18
0 -17 2 7 11 16 6 35 25 47 49 15 29 27 39 44 39 14 0 26 -5 28 -11 2 -7 37
59 77 146 75 164 83 205 41 205 -24 0 -24 -5 0 65 28 81 25 81 -16 1 -19 -37
-38 -66 -41 -62 -3 3 3 23 14 45 19 38 19 40 2 44 -10 3 -17 0 -16 -6 1 -6 -7
-12 -18 -14 -16 -3 -17 -2 -5 6 27 19 0 11 -50 -14 -28 -14 -50 -28 -50 -31 0
-2 8 0 18 5 14 8 17 5 17 -19 0 -16 -2 -26 -4 -24 -2 2 -12 -3 -22 -12 -18
-17 -22 -2 -6 24 11 16 -4 15 -29 -3 -12 -8 -25 -11 -29 -7 -5 4 -5 2 -1 -5 4
-7 -3 -32 -15 -55 l-22 -43 26 27 c14 16 31 28 37 28 6 0 8 5 4 12 -4 7 -3 8
4 4 6 -4 8 -14 5 -23 -5 -12 -3 -14 8 -8 12 8 12 6 0 -8 -7 -9 -10 -17 -7 -17
8 0 -114 -236 -181 -348 -24 -41 -43 -76 -43 -78 0 -12 -145 -224 -153 -224
-5 0 -6 24 -3 53 l6 53 -33 -2 c-67 -6 -133 -13 -157 -19 -14 -3 -50 -8 -80
-11 -30 -3 -61 -7 -68 -9 -9 -3 -10 3 -6 21 6 24 5 25 -15 15 -11 -7 -21 -16
-21 -21 0 -6 -5 -10 -11 -10 -5 0 -7 5 -3 11 3 6 1 14 -5 18 -6 4 -13 17 -16
30 -2 12 0 19 4 16 5 -2 20 5 35 16 14 11 26 17 26 13 0 -4 10 5 21 20 12 16
27 25 36 22 9 -4 11 -2 7 5 -4 8 -27 9 -65 5 -33 -3 -59 -2 -59 3 0 5 -11 12
-25 15 -26 7 -31 21 -16 45 11 17 26 21 94 28 84 9 50 18 -67 18 l-115 0 -33
-32 c-19 -18 -39 -33 -46 -33 -17 0 -15 50 3 94 l16 37 -26 -17 c-34 -22 -32
-6 3 24 15 13 22 21 16 18 -17 -8 -4 52 15 66 15 12 15 11 1 -6 -9 -12 -10
-17 -2 -12 11 6 42 69 42 84 0 4 -25 -18 -55 -48 -34 -34 -55 -63 -55 -77 0
-27 -62 -145 -99 -189 -14 -17 -43 -60 -64 -94 -21 -34 -40 -60 -44 -57 -5 5
11 34 56 107 15 22 15 24 -2 17 -27 -10 -21 -1 42 67 55 59 108 142 98 152 -2
2 -16 -6 -32 -18 -25 -19 -27 -20 -18 -2 6 10 8 24 6 31 -3 9 62 85 184 212
29 30 33 41 33 85 -1 28 -7 80 -13 116 l-13 65 -11 -73 c-15 -95 -73 -214
-107 -219 -5 -1 -13 -7 -17 -15 -7 -10 -9 -10 -9 0 0 8 -5 10 -12 6 -16 -10
-1 9 48 61 49 52 63 83 75 172 15 109 -6 251 -53 362 -10 24 -17 46 -15 48 7
7 47 -96 72 -185 13 -48 35 -118 48 -157 14 -38 22 -74 19 -80 -3 -5 2 -4 11
3 15 13 16 7 11 -80 l-5 -93 62 60 c63 60 63 56 1 -38 -14 -20 -23 -40 -20
-43 3 -2 20 18 38 46 18 27 44 60 59 73 15 12 40 53 56 91 19 42 38 72 52 79
12 5 24 15 27 22 2 7 -41 -8 -95 -33 -55 -24 -103 -42 -106 -38 -6 6 -1 21 51
149 28 70 36 82 81 111 48 31 101 82 65 61 -8 -4 -28 -18 -45 -30 -46 -34
-237 -136 -243 -130 -3 3 53 66 136 153 23 25 42 51 42 59 0 19 41 63 53 56 6
-4 8 0 4 10 -12 31 4 17 18 -15 11 -25 14 -28 15 -13 l1 20 9 -20 9 -20 1 20
c1 14 5 10 11 -12 10 -35 29 -45 29 -15 0 9 -5 34 -11 55 -11 40 -4 63 11 37
4 -8 18 -26 30 -40 12 -13 19 -32 17 -42 -3 -10 -1 -16 4 -12 5 3 9 0 9 -6 0
-14 -31 -63 -47 -73 -7 -4 -22 -27 -33 -49 l-20 -42 31 30 c17 16 39 45 49 64
25 48 53 78 68 72 7 -2 12 0 11 5 -1 4 0 15 1 23 4 26 20 -53 25 -125 l5 -70
-52 -38 c-29 -20 -57 -37 -63 -37 -5 0 -18 -12 -29 -26 -19 -26 -19 -26 4 -19
18 6 21 4 17 -12 -3 -10 -9 -44 -13 -76 -7 -65 -15 -72 -99 -93 l-50 -12 40
-1 c53 -1 137 45 147 79 3 14 14 60 23 102 15 71 20 80 55 105 50 36 57 56 65
184 4 60 13 119 21 134 8 15 14 32 14 38 0 5 24 37 53 71 97 110 180 244 170
273 -6 16 16 55 27 48 16 -10 20 51 6 98 -8 26 -26 63 -40 81 -24 32 -118 113
-104 90 7 -11 -10 -94 -22 -108 -8 -8 3 58 34 200 8 39 18 102 22 139 4 42 12
69 20 72 21 8 20 260 -1 283 -14 15 -12 24 15 86 l31 69 -36 -42 c-63 -74 -97
-50 -39 28 35 48 83 149 84 177 0 9 -391 12 -1922 11 -1292 0 -1915 -4 -1898
-10z m516 -99 c24 -11 44 -23 44 -25 0 -6 -59 18 -87 34 -31 18 -4 12 43 -9z
m1701 -143 c7 -5 10 -13 7 -19 -4 -6 -3 -8 3 -5 6 4 8 17 6 31 -3 13 1 27 8
31 8 5 10 4 5 -3 -4 -7 -3 -12 2 -12 14 0 41 -99 47 -175 l7 -71 -41 4 c-29 3
-41 0 -42 -9 -1 -8 -2 -21 -3 -29 -2 -8 -3 -25 -4 -37 -2 -21 -7 -23 -53 -23
-42 0 -52 -3 -56 -20 -7 -25 -36 -21 -62 7 -15 16 -17 23 -8 33 9 10 9 11 0 6
-7 -4 -13 -2 -13 3 0 18 38 12 50 -6 6 -10 10 -13 8 -8 -9 25 -40 93 -55 120
-9 17 -11 26 -5 20 6 -5 18 -23 26 -40 l16 -30 -2 28 c-1 15 -7 27 -12 27 -5
0 -6 3 -3 6 3 4 2 15 -4 25 -13 25 -4 24 22 -3 l21 -23 -7 35 c-10 45 -14 90
-8 90 10 0 48 -24 55 -34 5 -6 8 -1 8 13 0 19 3 21 14 12 11 -10 13 -6 10 23
-1 20 2 39 8 42 7 5 8 2 3 -6 -5 -8 -4 -11 2 -7 6 4 8 19 6 34 l-5 28 18 -25
c10 -14 24 -29 31 -33z m130 -39 c-2 -13 -4 -5 -4 17 -1 22 1 32 4 23 2 -10 2
-28 0 -40z m1339 -83 c-31 -41 -58 -75 -60 -75 -1 0 -3 7 -3 15 0 8 4 12 8 10
4 -3 13 8 20 24 7 16 17 27 21 25 4 -3 8 0 8 7 0 12 53 78 59 73 2 -2 -22 -37
-53 -79z m-3392 -23 c3 -5 -1 -9 -9 -9 -8 0 -12 4 -9 9 3 4 7 8 9 8 2 0 6 -4
9 -8z m30 -78 c3 -8 2 -12 -4 -9 -6 3 -10 10 -10 16 0 14 7 11 14 -7z m596 0
l35 -14 -35 6 c-40 7 -76 24 -50 23 8 0 31 -7 50 -15z m-419 -107 c-10 -9 -11
-8 -5 6 3 10 9 15 12 12 3 -3 0 -11 -7 -18z m20 -44 c7 -10 9 -15 5 -11 -5 4
-15 3 -22 -3 -11 -9 -13 2 -5 29 2 6 10 1 22 -15z m1547 4 c16 -19 -42 -88
-66 -81 -14 5 -14 4 -3 -4 12 -9 9 -18 -17 -59 -18 -26 -32 -45 -32 -40 0 4
11 26 26 48 23 37 23 39 5 29 -12 -6 -22 -8 -22 -5 -1 3 -2 10 -3 15 0 6 -8
15 -16 20 -12 8 -10 10 10 10 39 0 57 15 41 34 -7 9 -18 13 -25 9 -6 -4 -5 1
3 11 11 12 23 16 43 12 15 -3 28 -1 28 4 0 14 16 12 28 -3z m-188 -302 c-14
-38 -5 -43 15 -8 9 15 14 21 11 12 -2 -10 -10 -37 -17 -60 -7 -24 -18 -49 -25
-55 -7 -6 -15 -35 -17 -65 -2 -30 -3 -13 -2 36 2 57 10 106 21 133 19 46 31
52 14 7z m-49 2 c-10 -9 -11 -8 -5 6 3 10 9 15 12 12 3 -3 0 -11 -7 -18z m328
-124 c-17 -49 -33 -117 -36 -153 -5 -58 -3 -67 16 -84 12 -11 21 -31 21 -48 0
-27 -2 -29 -39 -26 -22 1 -37 6 -34 11 3 4 11 6 19 3 8 -3 14 -1 14 4 0 6 -6
10 -14 10 -14 0 -16 10 -17 90 -1 14 -5 28 -11 31 -14 9 21 129 37 129 7 0 24
27 38 60 15 33 29 60 31 60 3 0 -9 -39 -25 -87z m212 46 c-5 -13 -10 -19 -10
-12 -1 15 10 45 15 40 3 -2 0 -15 -5 -28z m-584 -31 c-3 -8 -6 -5 -6 6 -1 11
2 17 5 13 3 -3 4 -12 1 -19z m-647 8 c0 -2 -6 -9 -14 -15 -11 -9 -16 -9 -22 0
-4 7 -3 9 4 5 6 -3 13 -2 17 4 6 10 15 14 15 6z m1191 -111 c-12 -48 -21 -98
-21 -112 0 -29 -29 -57 -88 -83 -53 -24 -52 -24 -52 -1 0 10 -7 35 -15 54 -18
43 -19 82 -4 126 7 20 16 30 25 27 7 -3 16 0 20 6 5 7 2 8 -6 3 -9 -6 -11 -4
-5 5 6 10 12 7 27 -11 10 -14 16 -17 12 -7 -4 12 -1 16 13 14 13 -2 19 -13 22
-42 3 -32 5 -35 11 -19 7 17 9 17 9 3 1 -21 20 -24 25 -5 3 6 12 43 22 81 25
99 29 65 5 -39z m-561 23 c-5 -31 -5 -91 -1 -134 5 -48 4 -93 -3 -114 -10 -35
-10 -35 -18 30 -9 67 -5 136 13 228 14 70 21 62 9 -10z m256 -4 c-8 -27 -15
-42 -15 -34 -1 22 20 93 25 87 3 -3 -1 -27 -10 -53z m1561 34 c-3 -8 -6 -5 -6
6 -1 11 2 17 5 13 3 -3 4 -12 1 -19z m-149 -117 c-5 -66 -51 -171 -75 -171
-12 0 -14 7 -9 28 4 15 12 53 19 85 10 51 26 76 28 45 0 -7 5 -2 11 12 12 27
14 34 17 65 5 45 13 -10 9 -64z m-2174 20 c3 -4 -6 -19 -21 -32 l-26 -24 19
33 c20 35 21 36 28 23z m2541 -92 c-9 -17 -19 -28 -22 -25 -6 6 23 56 32 56 3
0 -2 -14 -10 -31z m-457 -25 c-8 -27 -13 -33 -16 -20 -4 17 17 70 24 63 2 -2
-2 -21 -8 -43z m-1275 16 c-3 -11 -7 -20 -9 -20 -2 0 -4 9 -4 20 0 11 4 20 9
20 5 0 7 -9 4 -20z m-334 -167 l-3 -138 31 -55 c18 -30 39 -75 48 -100 21 -56
45 -202 44 -255 -1 -22 -8 10 -15 70 -16 125 -35 188 -70 240 -47 70 -54 100
-54 235 0 113 3 140 18 140 2 0 3 -62 1 -137z m546 62 c-1 -30 2 -55 7 -55 4
0 8 6 8 13 0 8 4 7 10 -3 12 -19 13 -33 1 -26 -5 4 -46 -7 -91 -24 -89 -33
-122 -39 -75 -13 17 9 25 18 18 20 -7 3 -13 10 -13 17 0 21 -43 54 -75 59 -25
3 -24 4 10 6 35 1 170 42 183 56 14 14 19 0 17 -50z m-830 -90 c0 -96 -3 -136
-12 -139 -18 -7 -27 55 -20 138 5 57 23 136 30 136 1 0 2 -61 2 -135z m332 71
c-4 -22 -1 -36 6 -39 7 -2 10 -7 7 -10 -3 -3 -11 -2 -19 2 -8 6 -10 19 -6 45
9 46 20 48 12 2z m543 3 c0 -5 -4 -9 -10 -9 -5 0 -10 7 -10 16 0 8 5 12 10 9
6 -3 10 -10 10 -16z m485 -101 c-21 -86 -62 -173 -106 -223 -35 -40 -49 -44
-49 -15 0 14 5 18 17 13 13 -5 15 -2 10 11 -4 9 -3 15 2 12 5 -3 18 16 30 44
12 27 26 52 31 55 6 3 11 27 11 53 1 41 2 43 8 17 7 -28 9 -25 30 43 13 40 26
71 28 68 3 -3 -3 -38 -12 -78z m-155 56 c0 -8 -5 -12 -10 -9 -6 4 -8 11 -5 16
9 14 15 11 15 -7z m-802 -119 c24 -30 47 -55 52 -55 5 0 12 -15 15 -32 4 -18
12 -38 17 -45 5 -6 11 -24 14 -39 3 -16 8 -31 11 -34 3 -3 3 5 0 18 -4 19 -3
21 9 11 21 -17 55 -4 100 40 49 47 166 90 190 70 11 -9 1 -19 -53 -51 -38 -22
-76 -47 -86 -56 -21 -19 -60 -98 -77 -158 -10 -33 -17 -41 -35 -41 -27 0 -41
27 -41 79 1 20 -3 34 -8 31 -5 -3 -7 6 -4 20 3 15 2 24 -3 22 -4 -3 -10 3 -12
12 -3 10 -3 -4 -1 -32 l4 -50 -14 55 c-8 30 -12 63 -9 74 3 10 1 16 -4 13 -5
-3 -10 3 -11 14 -1 10 -3 28 -4 38 -1 11 -6 17 -10 15 -5 -3 -11 2 -14 10 -3
8 -16 18 -27 22 -38 11 -57 35 -57 71 0 18 3 33 8 33 4 0 27 -25 50 -55z
m1393 1 c5 3 9 1 9 -4 0 -5 -9 -12 -20 -15 -22 -6 -23 -6 -13 19 4 11 8 13 11
6 2 -7 8 -10 13 -6z m-21 -76 c-12 -23 -25 -38 -31 -35 -11 7 -5 20 24 53 29
31 30 28 7 -18z m-537 -25 c-3 -9 -8 -14 -10 -11 -3 3 -2 9 2 15 9 16 15 13 8
-4z m-176 -55 c-1 -28 2 -51 8 -53 8 -3 -191 -227 -202 -227 -2 0 -2 19 -2 43
1 24 4 32 6 19 4 -19 7 -21 19 -11 7 6 11 15 8 20 -3 5 -1 9 5 9 5 0 8 8 6 18
-1 9 2 25 7 36 8 14 7 17 -4 11 -7 -4 -2 2 11 13 14 12 20 22 13 26 -12 7 -52
-39 -53 -63 0 -9 -3 -11 -5 -4 -7 16 9 44 61 106 62 72 108 117 116 111 4 -2
7 -27 6 -54z m-207 35 c0 -7 -72 -36 -78 -30 -3 2 6 8 19 13 13 5 31 12 39 15
8 3 16 6 18 6 1 1 2 -1 2 -4z m-95 -45 c-3 -5 -11 -10 -16 -10 -6 0 -7 5 -4
10 3 6 11 10 16 10 6 0 7 -4 4 -10z m189 -12 c-9 -15 -35 -35 -49 -38 -5 -1
-17 -7 -25 -13 -13 -11 -13 -10 -1 6 8 9 16 16 18 13 2 -2 16 7 30 20 29 27
38 31 27 12z m-110 -80 c-4 -7 -18 -27 -30 -43 -20 -26 -84 -158 -84 -172 0
-3 8 -2 18 1 10 4 5 -5 -13 -22 -16 -16 -31 -28 -33 -27 -9 7 74 186 105 227
35 45 53 63 37 36z m182 -146 c-8 -16 -22 -34 -31 -42 -9 -7 -4 5 11 28 32 48
41 55 20 14z m-476 -122 c0 -5 -7 -7 -15 -4 -8 4 -15 8 -15 10 0 2 7 4 15 4 8
0 15 -4 15 -10z m-684 -218 c-25 -5 -106 8 -106 17 0 4 28 2 63 -3 34 -6 54
-12 43 -14z m-58 -19 c-10 -2 -28 -2 -40 0 -13 2 -5 4 17 4 22 1 32 -1 23 -4z
m50 -28 c12 -3 22 -12 22 -20 0 -8 6 -15 13 -15 26 -1 -26 -22 -86 -34 -34 -8
-70 -17 -80 -21 -15 -6 -16 -4 -9 16 20 55 23 79 8 79 -8 0 -17 4 -20 8 -5 8
104 -1 152 -13z m1527 -44 c3 -5 2 -12 -3 -15 -5 -3 -9 1 -9 9 0 17 3 19 12 6z
m-34 -34 c-10 -9 -11 -8 -5 6 3 10 9 15 12 12 3 -3 0 -11 -7 -18z m-1575 -128
c-35 -19 -38 -23 -32 -52 4 -17 11 -36 17 -42 7 -7 8 -4 3 10 -7 17 -5 18 8 8
8 -7 18 -10 21 -6 4 3 7 1 7 -5 0 -6 4 -21 9 -34 5 -13 10 -27 12 -33 7 -21
50 -56 60 -49 7 4 7 -1 -1 -16 -9 -16 -9 -20 -1 -15 7 4 18 2 26 -5 10 -9 21
-8 44 4 61 32 43 15 -44 -44 -50 -32 -101 -67 -115 -77 -21 -15 -23 -15 -12
-1 11 14 11 19 -3 35 -8 10 -15 22 -14 26 0 5 -11 24 -26 43 -14 19 -23 34
-19 34 3 0 1 7 -6 15 -7 9 -13 29 -14 47 -1 25 -7 32 -35 42 -19 6 -36 16 -38
23 -5 15 73 72 130 95 58 23 70 21 23 -3z m674 -34 c19 -19 32 -35 29 -35 -3
0 -20 16 -39 35 -19 19 -32 35 -29 35 3 0 20 -16 39 -35z m-80 -139 c6 -5 -1
-15 -17 -23 -29 -15 -46 -17 -20 -2 11 6 17 23 18 47 1 27 3 30 6 12 3 -14 9
-29 13 -34z m-239 -107 c6 -33 19 -68 28 -78 9 -9 12 -11 7 -4 -5 8 -7 16 -4
18 3 3 11 -6 18 -20 17 -32 33 -27 41 11 5 21 7 11 9 -36 5 -115 -4 -170 -28
-170 -15 0 -15 -2 -2 -10 13 -9 13 -10 0 -11 -8 -1 -18 -1 -22 0 -5 0 -8 -4
-8 -9 0 -12 -30 -44 -70 -75 l-25 -20 20 23 c14 18 16 25 7 31 -7 4 -15 24
-19 45 -5 32 -3 38 16 43 11 3 21 10 21 15 0 5 4 7 8 4 5 -3 9 2 9 10 0 10 -4
11 -11 4 -13 -13 -47 -13 -66 0 -11 8 -8 9 13 4 71 -16 83 55 41 259 -3 15 -3
27 0 27 3 0 10 -27 17 -61z m1233 21 c-4 -22 -4 -40 0 -40 3 0 19 19 36 42 16
22 30 36 30 30 0 -6 -24 -37 -54 -69 l-55 -58 22 68 c12 37 23 67 25 67 1 0
-1 -18 -4 -40z m-1344 11 c0 -5 -11 -11 -23 -15 -25 -6 -102 -63 -172 -125
-22 -20 -32 -27 -22 -15 9 11 17 25 17 31 0 13 49 51 126 97 62 37 74 42 74
27z m2215 -67 c-14 -37 -25 -69 -25 -72 0 -3 -2 -3 -5 0 -7 7 40 138 50 138 3
0 -6 -30 -20 -66z m-2188 4 c7 -24 15 -50 18 -60 4 -11 0 -18 -15 -23 -11 -4
-44 -28 -73 -54 -28 -27 -66 -60 -83 -74 l-31 -26 5 24 c2 14 0 25 -6 25 -6 0
-18 7 -27 16 -13 13 -13 19 -3 32 10 12 5 11 -19 -3 -18 -11 -33 -24 -33 -29
0 -5 -3 -6 -6 -3 -9 9 95 127 111 127 8 0 18 7 22 15 7 12 109 74 123 75 3 0
11 -19 17 -42z m341 -170 c-1 -115 2 -139 16 -153 23 -23 20 -42 -4 -20 -19
17 -20 17 -40 -6 l-20 -24 11 33 c9 25 9 36 0 45 -6 6 -11 21 -11 34 0 13 -3
23 -7 24 -5 0 -16 2 -26 4 -11 2 -22 -5 -27 -18 -7 -16 -8 -6 -5 33 l4 55 -13
-50 c-8 -27 -15 -66 -16 -85 -1 -31 -2 -32 -10 -13 -5 13 -5 35 1 55 5 18 9
49 9 69 0 56 11 97 27 103 8 3 11 2 8 -3 -3 -5 0 -13 6 -16 5 -4 8 -13 5 -20
-2 -7 2 -16 10 -19 8 -3 14 0 14 7 0 7 12 23 25 36 21 19 25 33 26 85 1 59 2
60 10 21 5 -22 8 -102 7 -177z m-119 102 c-5 -10 -8 5 -8 40 1 55 1 55 9 15 4
-22 4 -47 -1 -55z m-184 37 c8 -20 11 -37 6 -37 -5 0 -12 11 -15 24 -3 13 -9
32 -13 43 -11 32 6 8 22 -30z m212 -19 c-2 -13 -4 -3 -4 22 0 25 2 35 4 23 2
-13 2 -33 0 -45z m-898 -41 c-2 -1 -13 -9 -24 -17 -19 -14 -19 -14 -6 3 7 9
18 17 24 17 6 0 8 -1 6 -3z m731 -42 c0 -8 -4 -15 -8 -15 -5 0 -9 7 -9 15 0 8
4 15 9 15 4 0 8 -7 8 -15z m-794 -101 c-14 -54 -25 -87 -25 -71 -1 27 40 180
46 173 2 -2 -8 -48 -21 -102z m1401 64 c-3 -8 -6 -5 -6 6 -1 11 2 17 5 13 3
-3 4 -12 1 -19z m-642 2 c3 -5 -1 -10 -9 -10 -9 0 -16 5 -16 10 0 6 4 10 9 10
6 0 13 -4 16 -10z m652 -72 c-3 -7 -5 -2 -5 12 0 14 2 19 5 13 2 -7 2 -19 0
-25z m317 -46 c28 -19 79 -60 114 -90 52 -45 62 -59 57 -76 -4 -12 -11 -37
-16 -56 -8 -33 -8 -33 -4 10 3 34 -1 51 -15 70 -16 21 -22 22 -29 11 -8 -12
-12 -12 -25 -2 -9 7 -13 17 -10 22 8 13 -16 51 -29 46 -7 -2 -16 6 -22 17 -6
11 -30 35 -55 53 -25 18 -54 40 -65 48 -37 29 44 -14 99 -53z m796 55 c0 -2
-10 -12 -21 -23 -22 -19 -22 -19 -8 4 12 19 29 30 29 19z m43 -30 c8 -21 -11
-110 -26 -119 -6 -5 -23 -11 -37 -14 -14 -3 -67 -20 -117 -36 -51 -16 -97 -28
-103 -26 -6 2 12 29 40 61 49 55 54 57 100 57 46 0 51 3 87 45 40 48 48 53 56
32z m-1321 -29 c-7 -7 -12 -8 -12 -2 0 14 12 26 19 19 2 -3 -1 -11 -7 -17z
m196 -43 c-3 -3 -9 2 -12 12 -6 14 -5 15 5 6 7 -7 10 -15 7 -18z m-1461 -37
c-3 -8 -6 -5 -6 6 -1 11 2 17 5 13 3 -3 4 -12 1 -19z m1612 -173 c70 -79 98
-132 87 -160 -9 -25 -27 -17 -20 9 3 13 1 27 -5 31 -6 3 -9 10 -6 15 3 5 -29
51 -71 102 -77 93 -134 174 -134 191 0 5 18 -17 40 -49 21 -33 71 -95 109
-139z m-2354 159 c-33 -26 -112 -64 -119 -57 -3 4 -6 1 -6 -5 0 -15 -95 -63
-135 -69 -16 -2 -52 -8 -78 -13 -58 -12 -57 -12 -57 -2 0 5 31 14 69 21 69 12
88 20 185 76 27 16 46 23 42 17 -12 -19 5 -14 59 18 55 32 71 38 40 14z m1970
-68 c6 -6 30 -28 54 -50 72 -64 31 -36 -67 44 -50 41 -91 79 -92 84 0 8 82
-53 105 -78z m193 64 c7 -11 11 -20 9 -20 -2 0 -12 9 -22 20 -10 11 -14 20 -9
20 5 0 15 -9 22 -20z m869 9 c-14 -8 -22 -8 -30 0 -8 8 -3 11 19 11 25 -1 27
-2 11 -11z m-949 -79 c7 -11 11 -20 9 -20 -2 0 -12 9 -22 20 -10 11 -14 20 -9
20 5 0 15 -9 22 -20z m315 -83 c-3 -5 -14 15 -24 44 -25 70 -23 75 6 15 13
-28 21 -54 18 -59z m-168 43 c19 -36 19 -46 1 -31 -12 10 -29 61 -20 61 2 0
10 -13 19 -30z m754 -46 c24 -19 52 -34 62 -34 12 0 16 -5 13 -15 -8 -21 23
-19 34 2 9 15 13 14 46 -11 20 -15 36 -32 36 -38 0 -6 8 -21 18 -32 13 -16 13
-18 1 -8 -9 6 -19 8 -23 4 -4 -4 -6 -2 -4 3 3 10 -4 15 -23 15 -5 0 -7 -5 -3
-12 4 -7 3 -8 -5 -4 -6 4 -9 11 -6 16 3 5 0 12 -7 16 -7 4 -10 4 -6 -1 4 -4 3
-14 -3 -21 -6 -8 -8 -22 -5 -31 4 -10 -5 -4 -18 12 -14 17 -25 36 -26 43 0 6
-4 12 -8 12 -12 0 -32 -22 -32 -34 0 -6 5 -4 10 4 5 8 10 10 10 4 0 -16 -10
-23 -24 -18 -8 3 -11 17 -8 35 6 42 -15 76 -65 106 -24 14 -43 27 -43 29 0 9
39 -12 79 -42z m-3402 10 c-3 -3 -12 -4 -19 -1 -8 3 -5 6 6 6 11 1 17 -2 13
-5z m3688 -24 c3 -6 -1 -7 -9 -4 -18 7 -21 14 -7 14 6 0 13 -4 16 -10z m-370
-35 c39 -32 29 -32 -15 0 -19 14 -30 25 -24 25 5 -1 23 -12 39 -25z m-3658 -1
c-3 -3 -12 -4 -19 -1 -8 3 -5 6 6 6 11 1 17 -2 13 -5z m-52 -14 c-3 -5 -12 -7
-20 -3 -21 7 -19 13 6 13 11 0 18 -4 14 -10z m-49 -7 c-4 -5 -17 -9 -29 -10
-12 -1 -33 -4 -47 -7 -14 -2 -41 -7 -60 -10 -19 -3 -46 -8 -60 -11 -29 -8 -26
-7 -198 -40 -124 -24 -186 -47 -282 -104 -67 -40 -143 -81 -146 -78 -2 2 40
32 94 66 53 35 114 75 135 89 38 25 154 53 287 67 30 4 102 15 160 25 116 20
157 24 146 13z m3377 -55 c9 2 17 -2 17 -9 0 -6 7 -9 15 -5 8 3 14 1 12 -4 -1
-5 12 -21 28 -35 25 -21 18 -19 -40 11 -89 47 -96 54 -88 83 6 23 7 23 22 -10
11 -22 23 -33 34 -31z m125 46 c18 11 24 -13 8 -35 l-14 -21 -11 20 c-14 26
-15 64 -2 43 5 -7 13 -11 19 -7z m770 -54 c10 0 56 -99 49 -106 -2 -2 -12 15
-23 38 -10 24 -24 46 -31 51 -6 4 -22 22 -33 40 l-22 32 26 -27 c14 -16 29
-28 34 -28z m-490 -15 c9 -8 -19 -26 -37 -22 -7 1 -20 12 -28 24 -14 21 -13
21 22 13 20 -5 39 -11 43 -15z m-343 -64 c-8 -8 -95 35 -95 46 0 8 18 3 49
-14 27 -16 48 -30 46 -32z m-215 29 c0 -5 -2 -10 -4 -10 -3 0 -8 5 -11 10 -3
6 -1 10 4 10 6 0 11 -4 11 -10z m912 -32 c-6 -6 -8 -16 -6 -23 3 -7 0 -16 -7
-21 -7 -4 -10 -3 -7 2 4 5 -20 17 -53 28 -32 10 -56 22 -54 27 3 4 12 6 20 2
8 -3 15 0 15 6 0 6 6 8 14 5 8 -3 17 -1 21 5 4 7 16 6 37 -5 21 -11 27 -19 20
-26z m-876 17 c20 -20 32 -19 37 3 3 10 5 6 6 -11 1 -27 1 -27 -28 -13 -16 9
-31 12 -35 9 -3 -4 -6 1 -6 10 0 21 7 21 26 2z m732 -40 c12 -25 24 -64 27
-88 l5 -42 -14 47 c-8 26 -23 64 -35 83 -23 40 -25 45 -13 45 4 0 18 -20 30
-45z m-251 -10 c19 -16 23 -24 13 -25 -19 0 -60 28 -60 41 0 16 18 10 47 -16z
m320 -12 c0 -9 -4 -10 -14 -2 -7 6 -13 12 -13 14 0 1 6 2 13 2 8 0 14 -6 14
-14z m-2968 -87 c10 -12 2 -21 -44 -50 -63 -41 -137 -106 -167 -148 l-20 -29
58 -140 c55 -133 61 -142 99 -162 l40 -21 -45 -13 c-89 -26 -339 -73 -456 -84
-132 -13 -321 -7 -399 13 l-49 13 -25 70 c-23 66 -23 74 -12 155 11 78 68 245
94 279 9 10 29 12 87 7 60 -6 116 -1 270 24 107 17 220 40 250 51 106 39 298
60 319 35z m-1151 -143 c32 -4 42 -9 38 -20 -3 -8 -16 -48 -28 -89 -18 -63
-20 -81 -10 -108 7 -18 12 -50 12 -72 0 -21 5 -56 11 -77 6 -22 8 -41 5 -44
-11 -11 -154 76 -201 122 -87 89 -92 113 -33 201 42 62 104 106 138 99 14 -3
44 -8 68 -12z m1587 -153 c-10 -16 -92 -70 -107 -70 -7 0 -1 8 12 17 14 9 27
19 30 23 9 10 55 39 63 39 5 1 5 -3 2 -9z m-381 -421 c55 -92 58 -85 -44 -123
-171 -65 -204 -71 -380 -71 -141 0 -178 4 -255 24 -104 27 -184 65 -238 113
l-39 33 214 0 c246 1 380 17 564 69 65 18 121 34 124 34 3 1 27 -35 54 -79z
m310 -7 c3 -5 -1 -9 -9 -9 -8 0 -12 4 -9 9 3 4 7 8 9 8 2 0 6 -4 9 -8z m-46
-71 c-24 -25 -46 -43 -49 -38 -3 4 -25 -33 -48 -83 -35 -76 -45 -89 -57 -79
-18 15 -18 30 1 23 12 -5 13 -1 4 25 -10 28 -8 37 22 86 32 53 42 60 82 57 9
-1 17 3 17 9 0 5 -4 8 -9 4 -5 -3 -12 -1 -16 5 -3 5 1 10 9 10 9 0 16 5 16 11
0 8 4 9 13 0 14 -11 27 -5 27 11 0 5 -5 6 -12 2 -6 -4 -8 -3 -5 4 4 5 16 8 27
5 19 -5 17 -10 -22 -52z m3552 -48 c0 -7 -39 17 -46 28 -3 6 5 3 20 -6 14 -10
26 -19 26 -22z"/>
<path d="M5226 2757 c3 -10 9 -15 12 -12 3 3 0 11 -7 18 -10 9 -11 8 -5 -6z"/>
<path d="M5712 2440 c0 -14 2 -19 5 -12 2 6 2 18 0 25 -3 6 -5 1 -5 -13z"/>
<path d="M5780 2410 c0 -5 5 -10 10 -10 6 0 10 5 10 10 0 6 -4 10 -10 10 -5 0
-10 -4 -10 -10z"/>
<path d="M7156 1918 c3 -5 10 -6 15 -3 13 9 11 12 -6 12 -8 0 -12 -4 -9 -9z"/>
<path d="M4088 5288 c6 -6 18 -8 28 -6 14 3 12 5 -9 10 -19 3 -25 2 -19 -4z"/>
<path d="M3493 5223 c20 -2 54 -2 75 0 20 2 3 4 -38 4 -41 0 -58 -2 -37 -4z"/>
<path d="M3456 5044 c-21 -14 -35 -28 -33 -31 7 -6 64 24 72 38 13 21 -2 18
-39 -7z"/>
<path d="M4236 4948 c3 -5 10 -6 15 -3 13 9 11 12 -6 12 -8 0 -12 -4 -9 -9z"/>
<path d="M4270 4951 c0 -6 4 -13 10 -16 6 -3 7 1 4 9 -7 18 -14 21 -14 7z"/>
<path d="M4406 4892 c-3 -5 1 -9 9 -9 8 0 12 4 9 9 -3 4 -7 8 -9 8 -2 0 -6 -4
-9 -8z"/>
<path d="M4445 4821 c-3 -5 -2 -12 3 -15 5 -3 9 1 9 9 0 17 -3 19 -12 6z"/>
<path d="M3826 4811 c-3 -5 11 -11 32 -13 41 -6 47 -4 37 11 -8 13 -62 15 -69
2z"/>
<path d="M3592 4783 c-13 -3 -32 -13 -43 -24 -24 -24 -22 -24 43 6 51 24 51
28 0 18z"/>
<path d="M3794 4744 c-18 -14 -18 -15 4 -4 12 6 22 13 22 15 0 8 -5 6 -26 -11z"/>
<path d="M3183 4714 c-24 -14 -43 -27 -43 -29 0 -4 110 44 119 51 2 2 -4 4
-15 4 -10 0 -38 -12 -61 -26z"/>
<path d="M4683 4690 c-1 -11 8 -25 20 -31 21 -11 21 -11 5 7 -9 10 -17 23 -16
27 0 18 -8 15 -9 -3z"/>
<path d="M3920 4689 c-42 -4 -29 -6 59 -7 118 -2 148 4 51 10 -30 2 -80 1
-110 -3z"/>
<path d="M3653 4670 c-13 -5 -23 -11 -23 -13 0 -5 103 13 109 19 8 8 -64 3
-86 -6z"/>
<path d="M4061 4639 c-28 -16 -51 -31 -51 -33 0 -3 121 43 128 49 2 1 -3 5
-11 8 -8 3 -37 -8 -66 -24z"/>
<path d="M4163 4663 c9 -2 23 -2 30 0 6 3 -1 5 -18 5 -16 0 -22 -2 -12 -5z"/>
<path d="M2655 4629 c-33 -11 -71 -29 -85 -40 -14 -11 -18 -17 -10 -13 8 4 53
22 100 40 93 36 90 43 -5 13z"/>
<path d="M4320 4611 c21 -6 16 -8 -29 -14 -30 -3 -59 -11 -65 -17 -7 -7 31
-10 120 -9 71 1 118 3 104 6 -55 8 -70 14 -67 26 1 8 -13 13 -43 14 -34 1 -39
0 -20 -6z"/>
<path d="M1170 4544 c-31 -10 -66 -13 -112 -9 -39 4 -85 1 -109 -5 -36 -10
-44 -9 -51 4 -12 22 -93 23 -85 2 6 -16 -4 -21 -63 -31 -34 -6 -36 -8 -32 -40
5 -44 -25 -75 -72 -75 -59 0 -62 -54 -11 -158 31 -63 35 -76 26 -107 -9 -33
-8 -35 16 -41 13 -4 55 -3 91 2 37 5 155 8 263 7 165 -1 201 -4 222 -18 23
-15 28 -15 55 -1 42 22 304 32 400 16 39 -6 85 -9 102 -5 38 8 90 51 90 74 0
9 9 35 20 56 29 57 42 112 35 146 -6 25 -11 29 -39 29 -45 0 -68 20 -75 66 -5
30 -12 40 -31 46 -14 4 -49 14 -79 22 -61 18 -173 21 -202 5 -15 -8 -43 -5
-110 10 -105 24 -185 26 -249 5z m-292 -91 l-3 -78 35 -6 c31 -6 29 -7 -15 -6
l-50 0 3 83 c3 66 7 84 18 84 12 0 14 -15 12 -77z m160 49 c-33 -3 -38 -7 -38
-28 0 -18 6 -24 23 -25 l22 -2 -22 -4 c-19 -4 -23 -11 -23 -38 0 -33 2 -34 43
-38 38 -3 37 -4 -13 -5 l-55 -2 3 65 c2 36 -1 71 -6 78 -8 9 3 11 46 7 48 -4
51 -5 20 -8z m308 8 c-15 -5 -37 -17 -47 -26 -44 -39 -5 -114 59 -114 33 0 34
1 30 35 -3 24 0 35 9 35 8 0 13 -14 13 -40 l0 -40 -49 0 c-84 0 -123 52 -88
120 12 24 42 38 82 38 13 0 10 -3 -9 -8z m214 -67 c0 -42 -4 -55 -22 -67 -25
-18 -61 -21 -87 -7 -15 8 -17 20 -13 68 6 80 22 92 22 16 0 -68 14 -89 55 -79
22 6 25 12 26 54 1 26 1 58 0 72 -2 20 0 22 8 10 6 -8 11 -38 11 -67z m-400
33 c-15 -40 -13 -46 15 -46 22 0 24 2 15 26 -24 62 4 36 40 -37 26 -53 27 -59
10 -59 -12 0 -21 10 -25 30 -6 26 -11 30 -41 30 -30 0 -37 -4 -45 -30 -6 -16
-15 -30 -21 -30 -11 0 -12 -1 27 88 27 61 46 82 25 28z m240 24 c0 -5 -2 -10
-4 -10 -3 0 -8 5 -11 10 -3 6 -1 10 4 10 6 0 11 -4 11 -10z m264 -51 c20 -2
20 -2 -1 -6 -18 -3 -24 -13 -29 -44 -10 -62 -19 -45 -15 28 3 56 5 64 14 46 5
-13 19 -24 31 -24z m-938 -47 c-18 -16 -18 -16 -6 6 6 13 14 21 18 18 3 -4 -2
-14 -12 -24z m-3 -89 c5 -46 -7 -180 -13 -138 -2 15 -4 13 -10 -10 -6 -20 -8
1 -8 67 0 64 -4 103 -12 113 -11 13 -9 15 12 15 23 0 26 -5 31 -47z m1137 18
c0 -5 -9 -7 -20 -4 -11 3 -20 7 -20 9 0 2 9 4 20 4 11 0 20 -4 20 -9z m-123
-13 c-5 -15 47 -68 67 -68 19 0 67 -40 61 -51 -8 -12 -120 46 -139 72 -11 16
-12 27 -5 41 11 20 23 25 16 6z m-777 -8 c0 -5 -18 -10 -40 -10 -36 0 -40 -2
-40 -25 0 -20 5 -25 25 -25 14 0 25 -4 25 -10 0 -5 -11 -10 -24 -10 -17 0 -27
-7 -32 -22 -7 -22 -7 -22 -15 -3 -4 11 -5 35 -2 53 3 19 0 38 -7 47 -11 13 -4
15 49 15 34 0 61 -4 61 -10z m180 -7 c0 -13 -3 -14 -12 -5 -16 16 -53 15 -88
-3 -47 -24 -48 -60 -3 -125 17 -24 17 -24 0 -11 -9 7 -17 10 -17 5 0 -5 -7 -1
-14 9 -8 10 -18 17 -23 15 -15 -6 -14 41 2 76 19 39 49 54 113 55 33 1 42 -3
42 -16z m160 5 c0 -5 -18 -8 -40 -8 -36 0 -40 -2 -40 -25 0 -20 5 -25 25 -25
14 0 25 -4 25 -10 0 -5 -11 -10 -25 -10 -20 0 -25 -5 -25 -25 0 -14 -4 -25 -9
-25 -5 0 -11 31 -13 68 l-3 69 52 -1 c29 -1 53 -4 53 -8z m125 -43 l44 -50 1
51 c0 39 4 51 15 51 13 0 15 -12 13 -61 -3 -59 -4 -61 -28 -58 -14 2 -41 21
-61 42 -20 22 -38 40 -40 40 -2 0 -3 -20 -1 -45 3 -36 1 -45 -12 -45 -13 0
-16 12 -16 64 0 58 2 63 21 62 11 0 40 -23 64 -51z m142 -36 c1 -47 -1 -67 -6
-54 -8 19 -9 18 -13 -5 -3 -14 -6 13 -7 58 -1 63 2 83 12 80 8 -3 13 -30 14
-79z m101 64 c31 -26 37 -66 15 -88 -10 -10 -17 -21 -15 -24 2 -3 -2 -7 -8 -9
-9 -3 -9 1 -1 16 26 49 6 103 -44 115 -16 4 -14 5 6 6 15 0 36 -7 47 -16z
m-518 -90 c0 -21 -3 -24 -12 -15 -17 17 -19 42 -2 42 9 0 14 -10 14 -27z m567
-66 c2 -17 1 -19 -7 -7 -11 17 -14 47 -3 36 4 -3 8 -17 10 -29z m-759 16 c-10
-2 -28 -2 -40 0 -13 2 -5 4 17 4 22 1 32 -1 23 -4z m680 0 c-10 -2 -28 -2 -40
0 -13 2 -5 4 17 4 22 1 32 -1 23 -4z m106 -25 c-5 -8 -2 -9 9 -5 9 3 19 1 23
-4 4 -7 -3 -9 -17 -7 -23 3 -40 28 -19 28 6 0 8 -5 4 -12z"/>
<path d="M4658 4543 c7 -3 16 -2 19 1 4 3 -2 6 -13 5 -11 0 -14 -3 -6 -6z"/>
<path d="M4860 4481 c-24 -7 -24 -7 -4 -13 11 -3 29 1 39 8 21 15 8 17 -35 5z"/>
<path d="M4755 4420 c-16 -4 -61 -9 -100 -10 l-70 -2 45 -9 c42 -9 96 -2 170
22 34 10 -3 10 -45 -1z"/>
<path d="M4770 4390 l-65 -7 55 0 c30 -1 82 3 115 7 l60 7 -50 0 c-27 0 -79
-3 -115 -7z"/>
<path d="M5040 4303 c-14 -3 -29 -9 -35 -14 -9 -9 35 -3 85 12 l25 7 -25 0
c-14 0 -36 -3 -50 -5z"/>
<path d="M3089 3928 c-8 -14 -5 -98 3 -115 8 -17 8 -26 -2 -38 -16 -19 -8 -19
38 1 l37 16 -32 14 c-22 9 -33 21 -33 34 0 11 4 20 10 20 5 0 7 -7 4 -15 -4
-8 -1 -15 5 -15 6 0 11 8 12 18 1 11 4 8 9 -8 6 -22 8 -23 15 -7 11 26 -2 47
-30 47 -16 0 -25 6 -25 15 0 10 10 15 31 15 17 0 28 4 24 10 -5 8 -62 15 -66
8z"/>
<path d="M2440 3823 c-132 -70 -168 -214 -91 -363 17 -33 28 -60 24 -60 -5 0
-14 9 -21 20 -7 11 -20 20 -31 20 -23 0 -51 -31 -51 -57 0 -17 -8 -23 -41 -28
-28 -5 -38 -10 -31 -17 7 -7 21 -7 43 1 22 8 36 8 43 1 13 -13 87 -13 106 1
12 8 9 9 -12 5 -22 -5 -26 -3 -22 9 7 18 7 18 38 4 27 -13 83 -89 65 -89 -6 0
-24 11 -41 25 -23 20 -33 23 -49 15 -24 -13 -34 -52 -19 -79 13 -25 37 -27 68
-5 15 10 32 14 48 10 20 -5 25 -12 22 -34 -2 -19 -9 -28 -26 -30 -12 -2 -20
-8 -17 -13 11 -17 54 -9 84 17 53 44 43 92 -52 235 -15 23 -16 28 -3 38 18 15
37 6 30 -13 -3 -8 11 -35 30 -60 54 -71 63 -112 38 -170 -16 -35 -30 -50 -57
-62 -43 -18 -37 -39 9 -30 28 5 29 4 13 -8 -10 -8 -14 -17 -9 -20 5 -3 18 4
28 15 14 16 26 19 54 14 27 -5 40 -2 50 10 17 21 5 32 -14 12 -9 -9 -25 -12
-42 -9 l-27 5 36 34 c20 18 37 39 37 46 0 23 13 28 31 11 44 -40 103 23 64 66
-22 24 -48 26 -65 5 -18 -22 -24 -19 -53 25 -29 44 -28 47 8 24 44 -29 89 18
60 62 -19 29 -39 30 -72 4 -31 -24 -46 -25 -84 -3 -41 24 -36 31 19 25 39 -3
62 2 117 26 l69 30 51 -19 c55 -21 92 -24 115 -9 23 14 4 23 -21 9 -19 -10
-34 -8 -91 12 l-67 23 19 32 c23 36 27 131 9 167 -22 42 -81 107 -110 123 -16
8 -58 17 -92 20 -55 5 -68 3 -117 -23z m180 -113 c52 -27 75 -107 45 -154 -10
-15 -34 -31 -56 -38 -36 -10 -41 -9 -64 12 -29 27 -32 56 -8 82 22 24 50 23
64 -3 9 -17 8 -25 -4 -36 -15 -16 -42 -9 -32 8 4 5 2 9 -4 9 -14 0 -19 -23 -9
-42 14 -28 63 -23 87 8 31 39 27 77 -10 108 -47 40 -98 36 -144 -11 -19 -20
-38 -47 -41 -60 -8 -32 3 -88 21 -103 19 -16 19 -26 0 -34 -12 -4 -21 7 -35
40 -25 58 -25 107 0 159 23 47 66 78 79 56 6 -10 10 -9 14 4 5 13 15 15 44 9
21 -4 45 -10 53 -14z"/>
<path d="M2860 3840 c0 -5 -7 -10 -16 -10 -14 0 -14 -3 -4 -15 10 -12 10 -15
-1 -15 -11 0 -11 -3 1 -11 11 -8 12 -12 3 -16 -22 -9 -14 -18 17 -19 25 -1 29
2 25 17 -4 11 -2 19 4 19 19 0 12 35 -9 48 -12 7 -20 8 -20 2z"/>
<path d="M2960 3805 c0 -9 9 -15 23 -15 l22 0 -25 -20 c-14 -10 -22 -22 -18
-26 4 -4 15 -1 24 6 12 11 17 11 23 1 5 -7 17 -11 27 -9 14 2 20 13 22 41 l3
37 -50 0 c-39 0 -51 -4 -51 -15z m90 -25 c0 -5 -7 -10 -15 -10 -8 0 -15 5 -15
10 0 6 7 10 15 10 8 0 15 -4 15 -10z"/>
<path d="M951 3750 c-24 -5 -46 -11 -48 -14 -2 -2 40 -4 94 -3 111 0 190 -18
258 -57 44 -26 58 -46 33 -46 -7 0 -51 -17 -98 -37 l-85 -37 -190 -5 -190 -6
-3 -160 c-1 -88 0 -169 2 -180 3 -11 24 -30 46 -43 39 -22 40 -24 41 -80 0
-31 6 -88 13 -127 l14 -70 2 103 c3 117 3 118 11 126 3 4 35 -7 70 -23 35 -15
87 -36 116 -45 36 -12 60 -28 78 -52 15 -20 54 -55 86 -79 115 -84 246 -113
403 -90 148 22 146 30 -7 30 -135 0 -145 1 -204 29 -86 40 -93 50 -40 66 23 6
71 27 107 45 36 18 97 43 135 55 39 12 118 45 176 72 95 45 108 53 113 80 8
40 8 312 0 332 -5 12 -20 16 -60 16 -49 0 -54 2 -54 23 -1 12 -7 47 -15 77
l-14 55 6 -77 6 -78 -114 0 -115 0 -67 65 c-47 46 -90 77 -144 103 -74 35 -82
36 -198 39 -66 1 -140 -2 -164 -7z m919 -380 l0 -160 -84 -42 c-47 -23 -82
-46 -79 -51 3 -6 1 -7 -6 -3 -16 10 -53 -3 -45 -16 4 -7 2 -8 -4 -4 -6 4 -30
1 -52 -5 -22 -7 -36 -15 -30 -19 6 -4 -4 -7 -22 -7 -18 0 -80 -8 -138 -17
-186 -31 -382 9 -610 124 l-60 30 0 165 0 165 565 0 565 0 0 -160z"/>
<path d="M1813 3513 c-18 -4 -24 -16 -35 -76 l-13 -72 -3 73 c-3 73 -3 73 -30
70 -21 -2 -28 -10 -33 -33 l-7 -30 -1 28 c-1 25 -4 27 -46 27 -31 0 -47 -5
-54 -17 -9 -17 -5 -291 5 -340 5 -27 32 -30 74 -8 25 13 30 22 30 50 0 32 -2
34 -24 26 -23 -9 -24 -8 -30 51 -3 34 -6 85 -6 113 0 51 1 53 29 57 26 4 30 1
35 -25 3 -16 6 -78 6 -138 0 -113 3 -119 42 -98 18 10 19 17 13 81 -8 82 9 89
20 8 4 -27 10 -52 13 -54 4 -2 17 4 30 14 22 19 22 19 7 88 -15 63 -15 76 -1
136 18 78 18 76 9 75 -5 -1 -18 -4 -30 -6z"/>
<path d="M770 3369 c0 -123 2 -144 18 -155 28 -22 32 -17 32 45 0 54 2 59 20
54 17 -5 20 0 20 26 0 24 -4 31 -20 31 -17 0 -20 7 -20 40 0 38 1 39 29 34 27
-6 28 -4 23 22 -6 36 -17 44 -64 44 l-38 0 0 -141z"/>
<path d="M886 3448 c-3 -29 -6 -106 -6 -170 0 -109 2 -118 21 -128 11 -7 22
-10 23 -8 2 2 6 83 10 181 l7 177 -24 0 c-22 0 -25 -6 -31 -52z"/>
<path d="M948 3318 c-3 -100 -2 -186 1 -189 3 -4 16 -10 29 -14 21 -6 22 -4
23 57 1 66 8 55 24 -35 4 -26 13 -41 28 -46 12 -5 25 -7 28 -5 4 2 1 32 -6 66
-12 54 -11 64 1 71 11 6 14 34 14 125 0 64 -4 122 -8 128 -4 7 -35 15 -68 19
l-62 7 -4 -184z m89 38 c-4 -34 -6 -62 -7 -63 0 -2 -7 -3 -15 -3 -12 0 -15 14
-15 63 0 69 4 79 27 70 12 -5 14 -18 10 -67z"/>
<path d="M1518 3493 c-2 -5 -2 -97 0 -205 3 -179 4 -198 20 -198 43 1 44 7 36
214 -7 196 -7 196 -30 196 -12 0 -24 -3 -26 -7z"/>
<path d="M1117 3483 c-8 -14 -19 -192 -12 -212 3 -10 18 -21 35 -25 28 -5 30
-8 30 -52 l0 -47 -35 6 -36 6 7 -37 c9 -50 14 -54 65 -50 52 4 57 14 58 134 1
86 -7 104 -46 104 -21 0 -23 4 -23 50 l0 50 56 0 55 0 -3 -175 -3 -175 28 0
27 0 0 170 c0 145 2 172 15 177 9 3 17 4 19 2 2 -3 15 -273 16 -342 0 -5 12
-7 27 -5 26 3 27 5 24 61 l-2 57 30 0 c57 0 64 19 59 161 -3 70 -9 132 -12
138 -4 6 -36 11 -72 11 l-64 0 -1 -37 -2 -38 -6 35 c-6 34 -7 35 -58 38 -53 3
-53 3 -53 -27 0 -16 -4 -33 -10 -36 -6 -4 -10 8 -10 29 l0 36 -49 0 c-28 0
-52 -3 -54 -7z m333 -148 c0 -69 -3 -85 -15 -85 -12 0 -15 15 -15 78 0 43 3
82 7 85 18 18 23 0 23 -78z m-305 -73 c-3 -3 -11 0 -18 7 -9 10 -8 11 6 5 10
-3 15 -9 12 -12z"/>
<path d="M3089 3738 c-10 -18 -8 -24 7 -35 10 -7 13 -13 7 -13 -19 0 -25 -34
-8 -46 14 -10 14 -12 0 -18 -17 -6 -20 -41 -5 -51 6 -3 10 3 10 14 0 12 4 21
10 21 5 0 7 -7 4 -15 -4 -8 -1 -15 4 -15 6 0 13 8 15 18 3 12 5 9 6 -7 1 -18
4 -22 12 -14 7 7 8 24 4 42 -5 25 -12 31 -32 31 -34 0 -25 23 13 31 28 6 28 7
4 9 -16 2 -19 4 -8 7 22 6 31 32 17 49 -17 21 -47 17 -60 -8z m48 -3 c8 -22
-6 -33 -17 -15 -8 13 -10 13 -10 1 0 -8 -3 -12 -6 -8 -9 9 3 37 16 37 6 0 13
-7 17 -15z"/>
<path d="M2782 3719 c-17 -27 -5 -40 14 -15 8 11 14 23 14 28 0 15 -15 8 -28
-13z"/>
<path d="M2825 3726 c-6 -6 -9 -27 -8 -46 4 -41 23 -66 23 -30 l0 24 16 -22
c12 -18 19 -20 29 -12 8 7 19 9 25 5 5 -3 10 -2 10 4 0 5 -4 12 -10 16 -5 3
-7 11 -4 18 2 7 -2 21 -10 32 -15 20 -15 20 -31 0 -9 -11 -14 -15 -11 -9 9 17
-17 35 -29 20z"/>
<path d="M7246 3723 c-4 -9 -2 -21 4 -27 7 -7 10 -6 10 3 0 7 4 10 8 7 4 -2 9
5 9 16 2 20 1 20 -13 2 -12 -17 -13 -17 -8 -1 8 22 -2 23 -10 0z"/>
<path d="M868 3723 c7 -3 16 -2 19 1 4 3 -2 6 -13 5 -11 0 -14 -3 -6 -6z"/>
<path d="M2960 3700 c0 -5 23 -10 50 -10 28 0 50 5 50 10 0 6 -22 10 -50 10
-27 0 -50 -4 -50 -10z"/>
<path d="M2960 3645 c0 -9 9 -15 22 -15 l21 0 -21 -23 c-31 -33 -28 -57 3 -27
l25 23 25 -23 c31 -30 34 -6 3 27 l-21 23 21 0 c13 0 22 6 22 15 0 11 -12 15
-50 15 -38 0 -50 -4 -50 -15z"/>
<path d="M2220 3605 c0 -2 10 -10 23 -16 20 -11 21 -11 8 4 -13 16 -31 23 -31
12z"/>
<path d="M2872 3560 c-5 -14 -7 -29 -4 -34 7 -12 24 33 18 48 -2 6 -8 0 -14
-14z"/>
<path d="M3096 3534 c-11 -10 -13 -21 -7 -32 4 -9 6 -23 4 -29 -3 -7 3 -13 12
-13 9 0 14 -4 10 -9 -3 -5 -1 -12 4 -15 5 -4 12 2 14 11 4 17 5 17 6 1 0 -10
6 -18 11 -18 13 0 13 37 0 45 -6 4 -5 13 2 25 9 14 9 22 -1 34 -17 20 -35 20
-55 0z m44 -18 c0 -15 -24 -28 -34 -19 -13 14 -5 33 14 33 11 0 20 -6 20 -14z"/>
<path d="M2960 3530 c0 -5 9 -10 20 -10 11 0 20 -4 20 -10 0 -5 -9 -14 -20
-20 -11 -6 -20 -18 -20 -27 0 -13 5 -12 25 7 l25 23 25 -23 c17 -16 25 -19 25
-9 0 8 -9 20 -20 27 -11 7 -20 17 -20 22 0 6 9 10 20 10 11 0 20 5 20 10 0 6
-22 10 -50 10 -27 0 -50 -4 -50 -10z"/>
<path d="M2964 3416 c-3 -8 -4 -27 -2 -43 3 -26 7 -28 51 -31 26 -2 47 1 47 7
0 5 -19 11 -42 13 -31 2 -44 8 -46 21 -3 14 4 17 42 17 34 0 46 4 46 15 0 21
-88 21 -96 1z"/>
<path d="M3082 3350 c0 -27 4 -50 9 -50 5 0 9 10 9 22 0 20 13 18 16 -3 3 -22
7 -22 14 1 8 24 8 24 9 3 1 -31 21 -29 21 2 0 21 -5 25 -30 25 -23 0 -30 5
-30 19 0 15 8 21 33 24 28 3 28 4 -9 5 l-42 2 0 -50z"/>
<path d="M2823 3292 c-25 -21 -31 -32 -27 -49 5 -18 1 -25 -16 -31 -20 -8 -21
-9 -6 -15 26 -10 36 0 36 37 0 25 6 35 25 44 14 6 25 18 25 27 0 19 1 19 -37
-13z"/>
<path d="M3050 3305 c0 -11 -12 -15 -45 -15 -25 0 -45 -4 -45 -10 0 -5 18 -10
40 -10 27 0 42 -6 49 -17 8 -14 10 -9 11 25 0 23 -2 42 -5 42 -3 0 -5 -7 -5
-15z"/>
<path d="M3093 3278 c-20 -33 -9 -128 15 -128 15 -1 15 -2 0 -11 -29 -17 -20
-29 20 -28 31 1 33 2 12 8 -24 7 -24 7 -5 21 11 8 21 30 23 48 3 27 0 32 -17
32 -15 0 -21 6 -21 21 0 11 -4 17 -10 14 -5 -3 -10 1 -10 9 0 10 9 16 21 16
18 0 20 -4 14 -27 -6 -26 -5 -27 10 -12 9 9 13 23 9 32 -7 20 -49 23 -61 5z
m21 -83 c-4 -8 -1 -15 4 -15 6 0 13 8 15 18 4 13 5 11 6 -5 1 -17 -5 -23 -19
-23 -13 0 -20 7 -20 20 0 11 4 20 10 20 5 0 7 -7 4 -15z"/>
<path d="M2411 3191 c-20 -21 -43 -40 -50 -43 -12 -3 -12 -6 2 -11 12 -4 23 1
35 15 9 12 30 35 46 50 15 15 22 28 16 28 -7 0 -29 -17 -49 -39z"/>
<path d="M2961 3193 c1 -24 3 -29 6 -15 3 13 12 22 23 22 11 0 20 -9 23 -22
l4 -23 2 23 c0 12 7 22 15 22 8 0 17 -10 19 -22 3 -14 5 -9 6 15 l1 37 -50 0
-50 0 1 -37z"/>
<path d="M2265 3200 c-4 -6 7 -10 25 -10 18 0 29 4 25 10 -3 6 -15 10 -25 10
-10 0 -22 -4 -25 -10z"/>
<path d="M2960 3135 c0 -10 10 -15 32 -15 l33 0 -32 -22 c-48 -34 -42 -48 18
-48 36 0 49 4 46 13 -2 7 -15 11 -30 9 -36 -4 -34 9 3 31 47 28 39 47 -20 47
-38 0 -50 -4 -50 -15z"/>
<path d="M3085 3090 c-3 -5 -2 -18 4 -28 6 -11 6 -24 -1 -35 -11 -21 8 -51 26
-40 6 4 17 8 25 8 18 0 23 16 11 35 -9 13 -13 11 -30 -10 -15 -20 -20 -21 -20
-8 0 10 10 23 23 29 25 13 37 28 37 47 0 14 -66 17 -75 2z m55 -15 c0 -8 -9
-15 -20 -15 -11 0 -20 7 -20 15 0 8 9 15 20 15 11 0 20 -7 20 -15z"/>
<path d="M2963 3005 c2 -28 5 -30 50 -33 37 -2 47 0 47 12 0 12 -11 16 -44 16
-34 0 -46 4 -50 18 -2 9 -4 4 -3 -13z"/>
<path d="M7022 2964 c-18 -24 -31 -44 -28 -44 7 0 69 81 65 84 -2 2 -19 -16
-37 -40z"/>
<path d="M3090 2951 c0 -5 6 -12 13 -14 8 -4 9 -8 1 -14 -29 -22 -27 -103 3
-103 11 0 9 -5 -8 -20 l-24 -19 45 1 c26 0 35 3 21 5 l-25 5 25 19 24 19 -25
1 c-14 1 -28 1 -32 0 -5 0 -8 11 -7 27 l0 27 11 -25 11 -25 7 25 c8 24 8 24 9
3 1 -31 21 -29 21 2 0 21 -5 25 -30 25 -16 0 -30 5 -30 10 0 6 10 8 24 4 19
-4 26 -1 31 15 3 11 3 25 0 31 -8 13 -65 13 -65 1z"/>
<path d="M2967 2944 c-9 -9 -9 -57 -1 -78 4 -11 19 -16 45 -16 32 0 40 4 45
24 3 13 4 35 2 47 -2 20 -10 24 -43 27 -23 2 -44 0 -48 -4z m81 -41 c3 -21 -1
-23 -37 -23 -34 0 -41 3 -41 19 0 38 73 41 78 4z"/>
<path d="M6960 2885 c-12 -13 -27 -22 -33 -18 -6 3 -7 1 -3 -5 9 -15 27 -6 49
23 23 32 17 32 -13 0z"/>
<path d="M2979 2818 c-16 -6 -20 -15 -17 -45 3 -38 3 -38 51 -41 37 -2 47 0
47 12 0 12 -11 16 -45 16 -38 0 -45 3 -45 20 0 17 7 20 45 20 32 0 45 4 45 14
0 15 -45 17 -81 4z"/>
<path d="M3080 2756 c0 -8 7 -21 15 -29 13 -13 13 -16 0 -21 -17 -6 -21 -46
-5 -46 6 0 10 7 10 15 0 8 4 15 10 15 5 0 7 -7 4 -15 -4 -8 -1 -15 4 -15 6 0
13 10 15 23 l4 22 2 -22 c0 -13 6 -23 11 -23 16 0 12 40 -5 46 -13 5 -13 8 0
21 27 27 18 43 -25 43 -28 0 -40 -4 -40 -14z m60 -11 c0 -8 -9 -15 -20 -15
-11 0 -20 7 -20 15 0 8 9 15 20 15 11 0 20 -7 20 -15z"/>
<path d="M3090 2639 c0 -5 5 -7 10 -4 18 11 11 -17 -7 -31 -13 -10 -14 -13 -4
-14 11 0 11 -3 1 -16 -21 -24 8 -48 43 -35 30 12 33 21 15 39 -9 9 -9 15 0 24
7 7 12 20 12 30 0 14 -8 18 -35 18 -19 0 -35 -5 -35 -11z m47 -21 c-3 -8 -6
-5 -6 6 -1 11 2 17 5 13 3 -3 4 -12 1 -19z m-7 -26 c0 -5 -6 -17 -14 -27 -13
-19 -14 -18 -13 8 1 15 8 27 15 27 6 0 12 -4 12 -8z"/>
<path d="M7237 2600 c-4 -15 0 -20 14 -20 22 0 25 13 5 29 -11 9 -15 7 -19 -9z"/>
<path d="M9150 2570 c-8 -5 -58 -10 -110 -10 -108 0 -172 -9 -164 -21 3 -5 0
-9 -5 -9 -16 0 -14 -70 2 -71 6 0 19 -2 27 -3 34 -7 57 12 64 53 3 23 10 41
15 41 5 0 5 -16 0 -37 -4 -21 -4 -42 1 -47 4 -4 4 -22 -2 -40 -5 -17 -12 -47
-14 -66 -3 -19 -7 -41 -9 -47 -3 -8 4 -13 15 -13 10 0 23 -7 27 -15 7 -12 26
-14 106 -8 l97 6 0 149 c0 134 -2 148 -17 148 -10 0 -25 -5 -33 -10z"/>
<path d="M8720 2522 c-6 -2 -7 -9 -4 -14 4 -7 2 -8 -5 -4 -7 5 -20 -1 -31 -13
-10 -12 -20 -18 -22 -13 -1 5 -12 0 -23 -11 -20 -19 -20 -19 45 -12 36 4 68
12 71 17 4 7 9 6 13 -1 12 -18 45 -12 57 10 7 13 7 19 1 15 -6 -3 -13 3 -17
14 -5 15 -14 19 -40 17 -19 -1 -39 -4 -45 -5z"/>
<path d="M8896 2442 c-3 -5 1 -9 9 -9 8 0 12 4 9 9 -3 4 -7 8 -9 8 -2 0 -6 -4
-9 -8z"/>
<path d="M8874 2388 c-10 -18 -18 -40 -19 -50 0 -9 -3 -20 -7 -24 -18 -17 -5
-25 35 -22 l42 3 -1 40 c-4 87 -22 106 -50 53z m33 7 c0 -8 -4 -12 -9 -9 -5 3
-6 10 -3 15 9 13 12 11 12 -6z"/>
<path d="M8698 2339 c-16 -4 -28 -5 -28 -1 0 3 -7 -3 -15 -14 -10 -13 -13 -14
-10 -3 4 10 0 16 -10 16 -8 0 -15 -6 -15 -13 0 -30 11 -39 48 -37 20 1 61 2
90 2 50 1 52 2 42 21 -8 15 -8 20 2 20 9 0 9 3 -2 10 -8 5 -18 10 -22 10 -13
0 -9 -38 5 -43 6 -2 0 -4 -15 -4 -16 0 -29 3 -29 8 -1 5 -2 13 -3 18 -2 16
-10 18 -38 10z"/>
<path d="M8556 2295 c-3 -8 -1 -15 4 -15 6 0 10 7 10 15 0 8 -2 15 -4 15 -2 0
-6 -7 -10 -15z"/>
<path d="M8201 2278 c0 -14 -4 -35 -7 -45 -5 -17 -5 -17 6 0 6 10 9 30 7 45
l-4 27 -2 -27z"/>
</g>
</svg>
